<mxfile host="app.diagrams.net" modified="2024-06-07T18:20:14.843Z" agent="Mozilla/5.0 (Windows NT 10.0; Win64; x64) AppleWebKit/537.36 (KHTML, like Gecko) Chrome/125.0.0.0 Safari/537.36" etag="q1hG5u6v3Km1UMZ40Dn5" version="24.5.2" type="device">
  <diagram name="PÃ¡gina-1" id="qWasDyECkoel5sBFtUJP">
    <mxGraphModel dx="2074" dy="1098" grid="1" gridSize="10" guides="1" tooltips="1" connect="1" arrows="1" fold="1" page="1" pageScale="1" pageWidth="827" pageHeight="1169" math="0" shadow="0">
      <root>
        <mxCell id="0" />
        <mxCell id="1" parent="0" />
        <mxCell id="86zT_taZKi2n7GeRM2gv-1" value="&lt;font style=&quot;font-size: 24px;&quot;&gt;INICIO&lt;/font&gt;" style="ellipse;whiteSpace=wrap;html=1;" vertex="1" parent="1">
          <mxGeometry x="40" y="50" width="210" height="80" as="geometry" />
        </mxCell>
        <mxCell id="86zT_taZKi2n7GeRM2gv-2" value="" style="endArrow=classic;html=1;rounded=0;exitX=0.5;exitY=1;exitDx=0;exitDy=0;" edge="1" parent="1" source="86zT_taZKi2n7GeRM2gv-1">
          <mxGeometry width="50" height="50" relative="1" as="geometry">
            <mxPoint x="170" y="160" as="sourcePoint" />
            <mxPoint x="140" y="210" as="targetPoint" />
          </mxGeometry>
        </mxCell>
        <mxCell id="86zT_taZKi2n7GeRM2gv-3" value="&lt;span style=&quot;font-size: 24px;&quot;&gt;M&lt;/span&gt;" style="shape=parallelogram;perimeter=parallelogramPerimeter;whiteSpace=wrap;html=1;fixedSize=1;" vertex="1" parent="1">
          <mxGeometry x="40" y="210" width="190" height="90" as="geometry" />
        </mxCell>
        <mxCell id="86zT_taZKi2n7GeRM2gv-4" value="" style="endArrow=classic;html=1;rounded=0;exitX=0.456;exitY=1.037;exitDx=0;exitDy=0;exitPerimeter=0;" edge="1" parent="1" source="86zT_taZKi2n7GeRM2gv-3">
          <mxGeometry width="50" height="50" relative="1" as="geometry">
            <mxPoint x="130" y="310" as="sourcePoint" />
            <mxPoint x="130" y="390" as="targetPoint" />
          </mxGeometry>
        </mxCell>
        <mxCell id="86zT_taZKi2n7GeRM2gv-8" value="&lt;font style=&quot;font-size: 24px;&quot;&gt;X= M * 4&lt;/font&gt;" style="rounded=0;whiteSpace=wrap;html=1;" vertex="1" parent="1">
          <mxGeometry x="40" y="390" width="170" height="80" as="geometry" />
        </mxCell>
        <mxCell id="86zT_taZKi2n7GeRM2gv-9" value="&lt;font style=&quot;font-size: 24px;&quot;&gt;X&lt;/font&gt;" style="shape=display;whiteSpace=wrap;html=1;" vertex="1" parent="1">
          <mxGeometry x="40" y="580" width="170" height="80" as="geometry" />
        </mxCell>
        <mxCell id="86zT_taZKi2n7GeRM2gv-10" value="" style="endArrow=classic;html=1;rounded=0;exitX=0.461;exitY=1.088;exitDx=0;exitDy=0;exitPerimeter=0;" edge="1" parent="1" source="86zT_taZKi2n7GeRM2gv-8">
          <mxGeometry width="50" height="50" relative="1" as="geometry">
            <mxPoint x="130" y="680" as="sourcePoint" />
            <mxPoint x="120" y="580" as="targetPoint" />
            <Array as="points">
              <mxPoint x="120" y="570" />
            </Array>
          </mxGeometry>
        </mxCell>
        <mxCell id="86zT_taZKi2n7GeRM2gv-11" value="" style="endArrow=classic;html=1;rounded=0;" edge="1" parent="1">
          <mxGeometry width="50" height="50" relative="1" as="geometry">
            <mxPoint x="116" y="720" as="sourcePoint" />
            <mxPoint x="116" y="760" as="targetPoint" />
            <Array as="points">
              <mxPoint x="116" y="660" />
              <mxPoint x="116" y="720" />
            </Array>
          </mxGeometry>
        </mxCell>
        <mxCell id="86zT_taZKi2n7GeRM2gv-12" value="&lt;font style=&quot;font-size: 24px;&quot;&gt;FIM&lt;/font&gt;" style="ellipse;whiteSpace=wrap;html=1;" vertex="1" parent="1">
          <mxGeometry x="40" y="760" width="152.5" height="80" as="geometry" />
        </mxCell>
      </root>
    </mxGraphModel>
  </diagram>
</mxfile>
